<svg width="54" height="54" fill="none" xmlns="http://www.w3.org/2000/svg"><path d="M45.244 7.475 29.539 19.14l2.904-6.881 12.801-4.783Z" fill="#E2761B" stroke="#E2761B" stroke-linecap="round" stroke-linejoin="round"/><path d="M8.99 7.475 24.567 19.25l-2.762-6.992L8.989 7.475Zm30.604 27.038-4.183 6.408 8.95 2.462 2.573-8.728-7.34-.142Zm-32.262.142 2.557 8.728 8.95-2.462-4.183-6.408-7.324.142Z" fill="#E4761B" stroke="#E4761B" stroke-linecap="round" stroke-linejoin="round"/><path d="m18.334 23.685-2.494 3.773 8.886.394-.316-9.55-6.076 5.383Zm17.567 0-6.156-5.493-.205 9.66 8.87-.395-2.509-3.772ZM18.84 40.921l5.335-2.604-4.61-3.599-.725 6.203Zm11.222-2.604 5.35 2.604-.741-6.203-4.609 3.599Z" fill="#E4761B" stroke="#E4761B" stroke-linecap="round" stroke-linejoin="round"/><path d="m35.409 40.921-5.35-2.604.425 3.488-.047 1.468 4.972-2.352Zm-16.573 0 4.972 2.352-.032-1.468.395-3.488-5.335 2.604Z" fill="#D7C1B3" stroke="#D7C1B3" stroke-linecap="round" stroke-linejoin="round"/><path d="m23.889 32.413-4.451-1.31 3.14-1.436 1.31 2.746Zm6.455 0 1.31-2.746 3.157 1.436-4.467 1.31Z" fill="#233447" stroke="#233447" stroke-linecap="round" stroke-linejoin="round"/><path d="m18.839 40.921.758-6.408-4.94.142 4.182 6.266Zm15.815-6.408.758 6.408 4.183-6.266-4.94-.142Zm3.757-7.055-8.87.394.82 4.562 1.31-2.747 3.157 1.437 3.583-3.646Zm-18.972 3.646 3.157-1.437 1.294 2.747.836-4.562-8.886-.395 3.599 3.647Z" fill="#CD6116" stroke="#CD6116" stroke-linecap="round" stroke-linejoin="round"/><path d="m15.84 27.457 3.725 7.261-.126-3.614-3.6-3.646Zm18.988 3.647-.158 3.614 3.74-7.26-3.582 3.646Zm-10.102-3.252-.836 4.562 1.041 5.382.237-7.087-.442-2.857Zm4.814 0-.426 2.841.19 7.103 1.057-5.382-.82-4.562Z" fill="#E4751F" stroke="#E4751F" stroke-linecap="round" stroke-linejoin="round"/><path d="m30.36 32.414-1.058 5.382.758.52 4.609-3.598.158-3.615-4.467 1.31Zm-10.922-1.31.126 3.614 4.609 3.599.757-.521-1.041-5.382-4.451-1.31Z" fill="#F6851B" stroke="#F6851B" stroke-linecap="round" stroke-linejoin="round"/><path d="m30.437 43.273.047-1.468-.394-.347h-5.95l-.364.347.032 1.468-4.972-2.352 1.736 1.42 3.52 2.447h6.045l3.536-2.447 1.736-1.42-4.972 2.352Z" fill="#C0AD9E" stroke="#C0AD9E" stroke-linecap="round" stroke-linejoin="round"/><path d="m30.06 38.317-.758-.521H24.93l-.758.52-.395 3.489.363-.347h5.95l.395.347-.426-3.488Z" fill="#161616" stroke="#161616" stroke-linecap="round" stroke-linejoin="round"/><path d="m45.907 19.897 1.342-6.44-2.005-5.982-15.184 11.27 5.84 4.94 8.255 2.415 1.831-2.13-.79-.569 1.264-1.152-.98-.758 1.264-.963-.837-.631ZM7 13.457l1.342 6.44-.853.631 1.263.963-.963.758L9.052 23.4l-.79.568 1.816 2.131 8.255-2.415 5.84-4.94L8.989 7.475 7 13.457Z" fill="#763D16" stroke="#763D16" stroke-linecap="round" stroke-linejoin="round"/><path d="M44.156 26.1 35.9 23.685l2.51 3.773-3.741 7.26 4.924-.063h7.34L44.156 26.1Zm-25.823-2.415L10.078 26.1l-2.746 8.555h7.324l4.908.063-3.725-7.26 2.494-3.773Zm11.207 4.167.52-9.107 2.4-6.487H21.806l2.367 6.487.553 9.107.19 2.873.015 7.071h4.372l.032-7.071.205-2.873Z" fill="#F6851B" stroke="#F6851B" stroke-linecap="round" stroke-linejoin="round"/></svg>